<?xml version="1.0" encoding="UTF-8" standalone="no"?>
<svg
   xmlns:dc="http://purl.org/dc/elements/1.1/"
   xmlns:cc="http://creativecommons.org/ns#"
   xmlns:rdf="http://www.w3.org/1999/02/22-rdf-syntax-ns#"
   xmlns:svg="http://www.w3.org/2000/svg"
   xmlns="http://www.w3.org/2000/svg"
   viewBox="0 0 755.90533 755.90533"
   height="755.90533"
   width="755.90533"
   xml:space="preserve"
   id="svg2"
   version="1.1"><metadata
     id="metadata8"><rdf:RDF><cc:Work
         rdf:about=""><dc:format>image/svg+xml</dc:format><dc:type
           rdf:resource="http://purl.org/dc/dcmitype/StillImage" /></cc:Work></rdf:RDF></metadata><defs
     id="defs6"><clipPath
       id="clipPath22"
       clipPathUnits="userSpaceOnUse"><path
         id="path20"
         d="M 0,566.929 H 566.929 V 0 H 0 Z" /></clipPath></defs><g
     transform="matrix(1.3333333,0,0,-1.3333333,0,755.90533)"
     id="g10"><g
       transform="translate(137.9227,497.9222)"
       id="g12"><path
         id="path14"
         style="fill:#444d7a;fill-opacity:1;fill-rule:nonzero;stroke:none"
         d="m 0,0 13.53,-53.4 35.17,-132.264 11.768,8.76 -33.764,101.407 1.726,6.969 37.447,-104.757 27.667,20.1 z" /></g><g
       id="g16"><g
         clip-path="url(#clipPath22)"
         id="g18"><g
           transform="translate(234.9032,344.1046)"
           id="g24"><path
             id="path26"
             style="fill:#313660;fill-opacity:1;fill-rule:nonzero;stroke:none"
             d="m 0,0 -37.071,186.296 c -0.258,1.297 -0.335,2.587 -0.482,3.931 l -0.098,0.886 c -0.289,4.518 0.006,3.721 1.88,0.674 v 0 c 0.395,-0.631 0.365,-0.594 0.811,-1.267 L 73.173,10.639 c 0.195,-0.325 0.246,-0.716 0.142,-1.08 L 73.042,8.611 C 72.723,7.502 71.279,7.269 70.655,8.226 L -2.192,119.934 c 0,0 -0.591,1.299 -2.707,1.733 -2.115,0.433 2.579,-13.095 2.582,-13.101 0,0 0,-0.001 0,-0.001 L 30.402,-12.781 c 0.026,-0.097 1.25,-4.166 1.282,-4.261 0.595,-1.773 1.237,-3.669 1.282,-3.776 l 0.654,-1.979 c 0.823,-2.492 0.938,-5.175 0.245,-7.707 -0.01,-0.035 -0.019,-0.07 -0.029,-0.105 -0.864,-3.075 -4.51,-4.973 -5.365,-5.692 -0.115,-0.097 -0.228,-0.183 -0.352,-0.27 -1.704,-1.19 -9.422,-6.101 -16.642,-13.176 -2.87,-2.813 -8.623,-9.482 -11.532,-16.286 -2.908,-6.805 -25.514,-21.69 -43.997,-30.45 -18.483,-8.76 -62.116,-37.182 -62.116,-37.182 0,0 -2.581,-1.144 -2.128,-4.025 0.452,-2.881 16.374,-3.143 16.374,-3.143 0,0 11.661,9.683 16.36,11.954 4.699,2.271 76.871,41.079 76.871,41.079 0,0 7.175,1.968 9.035,6.281 1.859,4.312 -0.144,11.589 -0.145,11.591 0,0 0,0 0,0 10e-4,10e-4 1.226,4.792 4.434,10.131 2.998,4.992 17.926,21.231 20.134,23.44 0.926,0.925 3.301,3.318 5.332,5.089 l 17.002,13.961 c 0.174,0.144 6.012,4.901 7.312,5.867 7.333,5.452 16.21,9.809 22.672,9.891 6.979,0.089 12.831,-1.493 17.253,-3.84 6.098,-3.235 39.832,-28.822 39.832,-28.822 -0.006,10e-4 -4.217,0.255 -14.379,-0.85 -10.17,-1.106 -15.118,-0.458 -28.832,-7.611 -9.436,-4.921 -11.964,-6.496 -12.609,-6.939 -0.003,-0.002 -0.006,-0.003 -0.009,-0.003 -5.403,0.165 -12.783,5.38 -23.933,3.952 -3.13,-0.401 -11.073,-2.744 -15.395,-5.807 -4.321,-3.064 -8.34,-6.859 -9.542,-9.134 -2.239,-4.238 -3.618,-12.167 -3.618,-12.167 0,0 -0.36,-2.814 -5.31,-5.75 -2.971,-1.763 -8.191,-7.231 -9.938,-9.851 -0.573,-0.864 -0.766,-1.397 -1.066,-2.2 l -0.553,-1.594 c -0.056,-0.161 -0.107,-0.33 -0.149,-0.496 -0.334,-1.322 -0.408,-1.962 -0.474,-2.488 -0.097,-0.784 -0.148,-1.155 -0.113,-2.167 0.003,-0.083 -0.062,-1.902 2.072,-7.515 1.897,-4.992 6.144,-10.221 6.144,-10.221 0,0 3.103,-5.649 -2.189,-7.907 -5.292,-2.257 -14.313,-8.155 -14.313,-8.155 0,0 -5.804,-3.368 -10.755,-3.264 -4.95,0.103 -12.179,2.951 -12.179,2.951 0,0 -7.975,-0.796 -13.434,-3.171 -5.213,-2.268 -37.324,-16.746 -40.259,-18.073 -0.142,-0.065 -0.974,-0.486 -1.109,-0.563 l -33.365,-18.876 c -0.164,-0.093 -1.201,-0.757 -2.243,-1.706 -1.005,-0.914 -4.094,-5.059 -12.885,-5.135 -9.927,-0.085 -9.518,1.459 -9.724,1.977 -0.132,0.333 -0.299,1.084 -0.301,1.338 -0.004,0.914 0.173,1.072 0.407,1.699 0.558,1.496 1.465,5.491 -2.257,10.142 -4.736,5.919 -9.638,9.235 -11.931,10.708 -3.127,2.011 -6.631,1.474 -10.107,1.341 -1.294,-0.049 1.796,8.226 4.97,12.874 3.541,5.184 8.828,10.432 14.524,14.734 5.694,4.302 43.995,38.886 44.004,38.894 0,0 3.573,2.858 3.573,2.858 l 5.497,4.049 c 0,0 0.001,0.001 0.001,0.001 l 4.352,18.369 c 0,0.002 0,10e-4 0,0.003 0.01,0.025 0.867,2.171 7.238,8.567 6.41,6.434 52.6,40.73 52.6,40.73 L -0.005,-0.014 C -0.001,-0.011 0.001,-0.005 0,0" /></g><g
           transform="translate(198.0752,280.1794)"
           id="g28"><path
             id="path30"
             style="fill:#ffffff;fill-opacity:1;fill-rule:nonzero;stroke:none"
             d="m 0,0 -18.205,-11.927 c -0.235,-0.154 -0.522,-0.189 -0.79,-0.104 -0.536,0.17 -1.449,0.62 -2.342,1.802 -1.383,1.832 -1.207,6.679 -1.207,6.679 0,0 -0.03,2.424 2.955,3.361 C -16.604,0.748 0,0 0,0" /></g><g
           transform="translate(289.3548,291.667)"
           id="g32"><path
             id="path34"
             style="fill:#444d7a;fill-opacity:1;fill-rule:nonzero;stroke:none"
             d="m 0,0 c -1.647,-0.909 -3.346,-2.064 -4.884,-3.383 -3.766,-3.23 -6.022,-5.595 -7.969,-9.05 -2.889,-5.126 -5.688,-12.09 -5.882,-19.556 -0.193,-7.465 1.769,-15.015 4.88,-19.405 3.11,-4.39 8.884,-12.739 21.803,-15.744 7.305,-1.699 14.845,-0.33 20.17,2.065 4.072,1.832 8.522,4.819 11.438,8.2 3.346,3.881 4.554,6.548 6.124,10.611 2.973,7.692 3.611,15.796 2.472,22.628 -1.583,9.499 -7.814,16.103 -9.735,18.101 -0.608,0.633 -1.77,1.557 -2.494,2.174 -1.802,1.54 -6.431,4.103 -11.424,5.396 C 16.907,4.002 8.832,4.875 0,0" /></g><g
           transform="translate(296.1732,282.6996)"
           id="g36"><path
             id="path38"
             style="fill:#ffffff;fill-opacity:1;fill-rule:nonzero;stroke:none"
             d="m 0,0 c 0,0 -6.237,-1.864 -10.251,-8.1 -3.392,-5.271 -4.138,-11.216 -4.127,-14.347 0.017,-5.17 2.855,-11.929 7.21,-14.972 2.468,-1.726 10.54,-6.719 19.366,-4.418 3.848,1.003 6.966,3.718 9.261,6.461 3.283,3.925 5.122,8.844 5.403,13.954 0.081,1.463 0.091,3.007 -0.041,4.464 -0.148,1.65 -0.721,3.642 -1.465,5.371 -2.055,4.773 -4.702,7.949 -9.26,10.447 -1.098,0.602 -4.407,1.622 -5.457,1.803 C 6.443,1.389 4.27,1.269 0,0" /></g><g
           transform="translate(277.5136,227.2093)"
           id="g40"><path
             id="path42"
             style="fill:#313660;fill-opacity:1;fill-rule:nonzero;stroke:none"
             d="m 0,0 c 0,0 8.836,-4.553 12.235,-5.721 3.771,-1.295 13.788,-3.414 13.788,-3.414 0,0 -5.696,-25.113 -7.579,-29.826 -1.883,-4.713 -16.069,-48.875 -18.391,-50.361 -2.322,-1.485 -12.733,17.515 -12.733,17.515 l -10.745,19.202 c 0,0 -1.65,3.539 -4.792,1.633 -3.141,-1.906 -20.754,-15.359 -20.754,-15.359 l 0.562,16.163 c 0,0 15.483,12.909 21.019,18.443 C -21.854,-26.192 0,0 0,0" /></g><g
           transform="translate(220.0877,148.9113)"
           id="g44"><path
             id="path46"
             style="fill:#abb8df;fill-opacity:1;fill-rule:nonzero;stroke:none"
             d="m 0,0 29.055,24.719 7.32,-14.328 c 0,0 1.422,-4.938 -9.294,-22.447 -10.715,-17.509 -16.026,-26.46 -16.026,-26.46 z" /></g><g
           transform="translate(318.6301,222.5622)"
           id="g48"><path
             id="path50"
             style="fill:#444d7a;fill-opacity:1;fill-rule:nonzero;stroke:none"
             d="m 0,0 c 0,0 -7.57,-1.669 -9.015,-1.373 -1.445,0.296 0.761,-19.801 -3.685,-48.841 -4.446,-29.039 -21.631,-70.282 -21.631,-70.282 l -13.932,-34.181 c 0,0 2.193,2.546 18.746,21.151 10.656,11.977 25.572,31.211 28.794,34.482 7.051,7.158 15.107,13.561 22.931,17.844 10.297,5.637 21.534,10.467 27.373,13.07 5.236,2.334 -10.835,37.723 -16.167,49.646 -0.96,2.147 -3.588,7.452 -5.934,11.592 C 23.803,-0.403 16.199,11.74 15.308,12.529 14.307,13.415 12.348,10.856 11.875,10.202 11.777,10.067 11.674,9.935 11.569,9.805 10.798,8.852 8.725,6.206 6.957,4.873 6.122,4.244 3.049,2.81 3.049,2.81 c 0,0 0.12,-1.493 0.253,-3.082 0.312,-3.736 3.343,-27.013 3.343,-27.013 0,0 2.144,-16.159 1.929,-17.508 -0.266,-1.671 -1.373,-8.779 -2.985,-13.551 -1.347,-3.988 -2.616,-9.008 -4.836,-10.296 -2.22,-1.288 1.981,25.566 1.956,27.838 C 2.685,-38.641 0,0 0,0" /></g><g
           transform="translate(326.4626,291.4142)"
           id="g52"><path
             id="path54"
             style="fill:#444d7a;fill-opacity:1;fill-rule:nonzero;stroke:none"
             d="m 0,0 c 0,0 16.212,13.81 35.619,14.69 19.407,0.879 24.092,-1.376 24.092,-1.376 0,0 6.008,-8.471 7.87,-22.174 0.784,-5.766 1.014,-17.962 -0.717,-27.202 -0.858,-4.581 -2.201,0.321 -9.333,6.449 -9.7,8.335 -14.658,10.131 -20.262,12.43 -9.54,3.914 -28.068,4.907 -28.068,4.907 z" /></g><g
           transform="translate(337.6735,276.9786)"
           id="g56"><path
             id="path58"
             style="fill:#abb8df;fill-opacity:1;fill-rule:nonzero;stroke:none"
             d="m 0,0 11.907,-1.783 c 0,0 1.822,-9.879 1.046,-17.119 -1.999,-18.633 -8.615,-30.201 -8.615,-30.201 l -7.564,8.857 c 0,0 6.078,13.165 6.534,21.213 C 3.974,-7.281 0,0 0,0" /></g><g
           transform="translate(352.9676,274.5067)"
           id="g60"><path
             id="path62"
             style="fill:#444d7a;fill-opacity:1;fill-rule:nonzero;stroke:none"
             d="M 0,0 15.821,-6.135 14.04,-18.752 c -0.029,-0.241 -0.476,-3.137 -0.52,-3.376 -0.601,-3.275 -2.136,-9.633 -3.344,-13.584 -1.565,-5.116 -4.544,-11.437 -7.491,-16.376 -1.458,-2.443 -4.645,-7.233 -4.645,-7.233 l -6.538,9.237 c 0,0 -1.359,1.943 -1.371,1.967 -0.012,0.024 0.992,1.292 1.422,2.164 1.25,2.534 4.583,10.104 6.856,20.427 C 0.795,-14.69 0,0 0,0" /></g><g
           transform="translate(371.381,267.2977)"
           id="g64"><path
             id="path66"
             style="fill:#313660;fill-opacity:1;fill-rule:nonzero;stroke:none"
             d="m 0,0 20.492,-16.168 c 0,0 1.404,-4.01 -4.668,-24.484 C 12.003,-53.536 4.293,-65.18 0.564,-70.949 -3.575,-77.353 -9.203,-83.023 -9.203,-83.023 l -10.021,28.864 c 0,0 5.996,9.662 8.951,15.364 2.655,5.124 4.872,10.353 6.742,18.364 C -2.411,-15.635 0,0 0,0" /></g><g
           transform="translate(396.2991,286.7396)"
           id="g68"><path
             id="path70"
             style="fill:#abb8df;fill-opacity:1;fill-rule:nonzero;stroke:none"
             d="m 0,0 c -0.82,4.051 -3.918,10.8 7.108,0.841 4.653,-4.202 14.199,-13.796 21.611,-21.686 4.064,-4.326 25.07,-26.279 25.539,-28.696 0.052,-0.266 -15.976,-5.74 -17.984,-6.374 -1.79,-0.565 -4.692,-1.829 -6.368,-2.53 -1.41,-0.59 -6.926,-3.269 -11.052,-5.605 -2.73,-1.546 -10.915,-7.148 -17.972,-13.907 -0.17,-0.163 -7.059,-7.351 -8.717,-9.531 l -16.306,-21.247 c -2.151,-2.745 -6.497,-1.964 -7.558,1.358 l -0.006,0.02 c -0.473,1.48 -0.136,3.115 0.927,4.248 4.914,5.233 9.216,10.19 14.268,18.09 3.869,6.051 9.943,18.597 12.943,32.217 1.411,6.407 4.297,17.55 4.728,34.473 C 1.399,-8.988 1.206,-5.958 0,0" /></g><g
           transform="translate(445.7549,177.5619)"
           id="g72"><path
             id="path74"
             style="fill:none;stroke:#313660;stroke-width:2.70000005;stroke-linecap:butt;stroke-linejoin:miter;stroke-miterlimit:10;stroke-dasharray:none;stroke-opacity:1"
             d="m 0,0 3.234,3.078 3.838,-4.033 -11.071,-10.537 -3.838,4.033 3.272,3.114 -16.945,17.805 -3.271,-3.114 -3.839,4.033 11.071,10.537 3.839,-4.033 -3.234,-3.078 z" /></g><g
           transform="translate(464.998,220.9603)"
           id="g76"><path
             id="path78"
             style="fill:none;stroke:#313660;stroke-width:2.70000005;stroke-linecap:butt;stroke-linejoin:miter;stroke-miterlimit:10;stroke-dasharray:none;stroke-opacity:1"
             d="m 0,0 -4.109,-3.911 -4.237,4.452 -5.592,-5.322 16.763,-17.615 4.338,4.127 3.838,-4.033 -13.24,-12.6 -3.838,4.033 4.337,4.128 -16.764,17.615 -5.593,-5.322 4.237,-4.452 -4.109,-3.911 -8.256,8.675 23.969,22.811 z" /></g><g
           transform="translate(321.8018,79.6293)"
           id="g80"><path
             id="path82"
             style="fill:#313660;fill-opacity:1;fill-rule:nonzero;stroke:none"
             d="m 0,0 c 5.895,4.015 11.107,4.48 15.199,0.182 4.526,-4.757 3.738,-11.09 -2.16,-16.702 -3.88,-3.693 -7.738,-4.971 -11.371,-4.66 l 2.57,-2.701 -4.26,-4.055 -8.039,8.447 4.261,4.054 c 5.066,-0.98 8.558,-0.992 12.78,3.028 2.892,2.751 3.601,5.891 1.718,7.87 -1.412,1.483 -3.811,2.099 -7.401,-0.374 l -5.78,-3.906 c -5.936,-4.125 -10.943,-3.816 -14.672,0.103 -4.491,4.718 -3.809,11.238 2.089,16.851 3.233,3.077 6.727,4.663 10.288,4.426 l -2.136,2.245 3.919,3.729 L 4.282,10.89 0.098,6.907 c -3.429,1.088 -7.29,1.184 -11.171,-2.51 -3.196,-3.041 -3.643,-6.076 -1.506,-8.321 1.991,-2.093 4.493,-1.597 7.969,0.769 z" /></g><g
           transform="translate(354.3809,115.4916)"
           id="g84"><path
             id="path86"
             style="fill:#313660;fill-opacity:1;fill-rule:nonzero;stroke:none"
             d="m 0,0 -4.108,-3.911 -4.238,4.452 -5.592,-5.322 16.764,-17.615 4.337,4.127 3.839,-4.033 -13.24,-12.6 -3.838,4.033 4.337,4.128 -16.765,17.615 -5.592,-5.322 4.237,-4.452 -4.109,-3.911 -8.256,8.675 23.969,22.811 z" /></g><g
           transform="translate(379.4531,148.1966)"
           id="g88"><path
             id="path90"
             style="fill:#313660;fill-opacity:1;fill-rule:nonzero;stroke:none"
             d="m 0,0 9.848,-10.348 c 7.06,-7.419 6.913,-16.405 0.026,-22.959 -6.849,-6.516 -15.831,-6.22 -22.892,1.199 l -9.847,10.347 -3.273,-3.113 -3.838,4.033 11.072,10.536 3.838,-4.033 -3.234,-3.077 9.848,-10.348 c 4.381,-4.604 10.161,-5.193 14.27,-1.283 4.147,3.947 3.883,9.785 -0.498,14.39 l -9.847,10.347 -3.272,-3.113 -3.839,4.033 11.072,10.536 3.837,-4.033 z" /></g><g
           transform="translate(415.585,149.016)"
           id="g92"><path
             id="path94"
             style="fill:#313660;fill-opacity:1;fill-rule:nonzero;stroke:none"
             d="m 0,0 c 5.137,4.888 5.475,12.532 0.731,17.516 -4.634,4.87 -12.177,4.796 -17.314,-0.091 l -5.136,-4.889 16.583,-17.425 z m -20.602,21.647 c 7.914,7.532 18.951,7.666 25.975,0.286 C 12.506,14.438 11.934,3.308 4.02,-4.224 l -12.974,-12.346 -3.838,4.033 3.271,3.113 -16.944,17.805 -3.271,-3.113 -3.839,4.033 z" /></g></g></g></g></svg>